-
If you care to share, you should love to seed,

please Seed what you leech and make the speed Faster with your speed,

Remember to visit
 
http://www.torrentkit.com



-      *********** ****    ****      ***      ******** *********** ****    *** **********
           *+*     +*+*+* *+*+*+   *+* *+*   *+*    *+*    *+*     *+*+*   *+* *+*        
           +*+     +*+ +*+*+ +*+  +*+   +*+  +*+           +*+     *+*+*+  +*+ +*+        
           +$+     +$+  +*+  +$+ +$++*++$++* *$*           +$+     +$+ +*+ +$+ +$++*++$  
           +$+     +$+       +$+ +$+     +$+ +$+   +$+$    +$+     +$+  +$+$+$ +$+        
           $+$     $+$       $+$ $+$     $+$ $+$    $+$    $+$     $+$   $+$+$ $+$        
       $$$$$$$$$$$ $$$       $$$ $$$     $$$  $$$$$$$$ $$$$$$$$$$$ $$$    $$$$ $$$$$$$$$$     
                                                



                           Another Fine Release Brought to you from - IMAGiNE                   
                                                 

********************************************************************************************************************                                
                                  Tekken DVDRiP AC3 XViD - IMAGiNE
********************************************************************************************************************

Ripper ...........: IMAGiNE                                        IMDB Rating.......:6.9/10                             
Video Codec.......: XVID                                         Release Date......:06/08/10
Audio Codec.......:AC3                                           Theatre Date......:05/11/09
Audio Bitrate.....:448                                              Runtime.......:1h 27mn
Subtitles.........:NIL                                                 Language..........:ENGLISH
Resolution...... 720 x 400                                      IMDb URL..........:http://www.imdb.com/title/tt0411951/


[color=yellow]DETAILS:[/color]

Video
ID                               : 0
Format                           : MPEG-4 Visual
Format profile                   : Advanced Simple@L5
Format settings, BVOP            : Yes
Format settings, QPel            : No
Format settings, GMC             : No warppoints
Format settings, Matrix          : Default (MPEG)
Muxing mode                      : Packed bitstream
Codec ID                         : XVID
Codec ID/Hint                    : XviD
Duration                         : 1h 27mn
Bit rate                         : 1 784 Kbps
Width                            : 720 pixels
Height                           : 400 pixels
Display aspect ratio             : 16/9
Frame rate                       : 25.000 fps
Resolution                       : 24 bits
Colorimetry                      : 4:2:0
Scan type                        : Progressive
Bits/(Pixel*Frame)               : 0.248
Stream size                      : 1.09 GiB (80%)
Writing library                  : XviD 1.2.1 (UTC 2008-12-04)

Audio
ID                               : 1
Format                           : AC-3
Format/Info                      : Audio Coding 3
Codec ID                         : 2000
Duration                         : 1h 27mn
Bit rate mode                    : Constant
Bit rate                         : 448 Kbps
Channel(s)                       : 6 channels
Channel positions                : Front: L C R, Surround: L R, LFE
Sampling rate                    : 48.0 KHz
Stream size                      : 280 MiB (20%)
Alignment                        : Aligned on interleaves
Interleave, duration             : 40 ms (1.00 video frame)
Interleave, preload duration     : 512 ms



[color=yellow]NOTES:[/color]

IMAGiNE bringing you another release.....Tekken 

Source used was Tekken 2010 PAL DVDR RETAiL....Thanks for this :)
Right all we've done was made a little script to rip the dvdr with some white balance,touch more brightness
and sharpness added to the normal,crop and resize.
The audio we opted to keep the original 5.1 track as we didn't see the point in converting it unless you wanted 
a smaller file size :P

Anyway plenty of decent rips of this already out there but heres another one added to the mix :)


[color=yellow]SCREENS:[/color]

[img]http://imagine.takagari.com/tekken/vlcsnap-364029.png[/img]
[img]http://imagine.takagari.com/tekken/vlcsnap-384187.png[/img]
[img]http://imagine.takagari.com/tekken/vlcsnap-384533.png[/img]
[img]http://imagine.takagari.com/tekken/vlcsnap-385239.png[/img]


[color=yellow]GREETS:[/color]

FLAWL3SS,ViSiON,FUSiON,Rx,SecretMyth,BirdFlu,ELEKTRI4KA and Autotron
And to all the other p2p grps past and present 

Special thanks to Python-Lair for the server :)
And special thanks to supreme-speeds.com for the ripbox :)
Also to The Scene Nation for all their help :)

[COLOR=RED]Looking for these,syncers,cammers,silver supplier.....Have anything to offer????......
Contact us imaginegroup@hushmail.com[/COLOR]